<svg width="10" height="7" viewBox="0 0 10 7" fill="none" xmlns="http://www.w3.org/2000/svg">
<path d="M0.21959 0.96959C0.360236 0.828987 0.550967 0.75 0.74984 0.75C0.948713 0.75 1.13944 0.828987 1.28009 0.96959L4.99259 4.68209L8.70509 0.96959C8.84654 0.832971 9.03599 0.757375 9.23264 0.759084C9.42929 0.760793 9.6174 0.83967 9.75645 0.978726C9.89551 1.11778 9.97439 1.30589 9.9761 1.50254C9.9778 1.69919 9.90221 1.88864 9.76559 2.03009L5.52284 6.27284C5.38219 6.41344 5.19146 6.49243 4.99259 6.49243C4.79372 6.49243 4.60299 6.41344 4.46234 6.27284L0.21959 2.03009C0.0789866 1.88944 0 1.69871 0 1.49984C0 1.30097 0.0789866 1.11024 0.21959 0.96959Z" fill="#999999"/>
</svg>
