<svg width="177" height="39" viewBox="0 0 177 39" fill="none" xmlns="http://www.w3.org/2000/svg">
<path d="M0.976562 28.0645C1.00911 27.9342 1.02539 27.8366 1.02539 27.7715C1.05794 27.7064 1.00911 27.625 0.878906 27.5273C0.813802 27.2995 0.86263 27.153 1.02539 27.0879C1.18815 27.0228 1.35091 26.9577 1.51367 26.8926C1.67643 24.9395 2.00195 23.1654 2.49023 21.5703C3.01107 19.9427 3.56445 18.3639 4.15039 16.834C4.76888 15.304 5.37109 13.7741 5.95703 12.2441C6.57552 10.6816 7.08008 8.98893 7.4707 7.16602C7.89388 6.74284 8.23568 6.23828 8.49609 5.65234C8.78906 5.06641 9.06576 4.48047 9.32617 3.89453C9.61914 3.27604 9.94466 2.6901 10.3027 2.13672C10.6934 1.58333 11.2142 1.1276 11.8652 0.769531C12.1582 0.802083 12.4186 0.867188 12.6465 0.964844C12.9069 1.02995 13.151 1.11133 13.3789 1.20898C13.6068 1.30664 13.8509 1.38802 14.1113 1.45312C14.3717 1.51823 14.6484 1.55078 14.9414 1.55078C15.0716 1.71354 15.1855 1.90885 15.2832 2.13672C15.3809 2.33203 15.5111 2.51107 15.6738 2.67383L16.5527 2.52734C16.9759 2.88542 17.3503 3.34115 17.6758 3.89453C18.0013 4.41536 18.2292 4.96875 18.3594 5.55469C18.4896 6.10807 18.4733 6.66146 18.3105 7.21484C18.1478 7.73568 17.7734 8.14258 17.1875 8.43555C17.2201 8.63086 17.2201 8.77734 17.1875 8.875C17.1549 8.97266 17.1061 9.07031 17.041 9.16797C17.0085 9.23307 16.9922 9.31445 16.9922 9.41211C16.9922 9.47721 17.0573 9.57487 17.1875 9.70508C16.8294 9.99805 16.5039 10.3724 16.2109 10.8281C15.918 11.2513 15.6738 11.707 15.4785 12.1953C15.2832 12.6836 15.1204 13.1719 14.9902 13.6602C14.8926 14.1484 14.8275 14.6042 14.7949 15.0273C15.7389 14.0508 16.8457 13.1393 18.1152 12.293C19.3848 11.4466 20.4915 10.6491 21.4355 9.90039C22.1842 9.37956 22.8353 8.89128 23.3887 8.43555C23.9746 7.94727 24.5605 7.50781 25.1465 7.11719C25.7324 6.69401 26.3346 6.30339 26.9531 5.94531C27.6042 5.55469 28.2552 5.13151 28.9062 4.67578C29.2318 4.54557 29.4759 4.51302 29.6387 4.57812C29.834 4.64323 30.013 4.72461 30.1758 4.82227C30.2083 4.5944 30.1595 4.46419 30.0293 4.43164C29.8991 4.36654 29.8503 4.20378 29.8828 3.94336C30.4362 3.7806 30.9245 3.58529 31.3477 3.35742C31.8034 3.12956 32.2754 2.91797 32.7637 2.72266C33.0892 3.08073 33.4147 3.47135 33.7402 3.89453C34.0658 4.28516 34.5052 4.49674 35.0586 4.5293C35.2539 4.95247 35.4818 5.27799 35.7422 5.50586C36.0352 5.70117 36.3118 5.89648 36.5723 6.0918C36.8652 6.28711 37.1094 6.53125 37.3047 6.82422C37.5 7.08464 37.6139 7.50781 37.6465 8.09375C37.5163 8.35417 37.3535 8.64714 37.1582 8.97266C36.9954 9.26562 36.849 9.63997 36.7188 10.0957C35.9375 10.8118 35.14 11.4466 34.3262 12C33.5449 12.5208 32.7311 13.0254 31.8848 13.5137C31.071 14.002 30.2246 14.5065 29.3457 15.0273C28.4993 15.5482 27.6367 16.1504 26.7578 16.834C26.5625 17.127 26.3184 17.3874 26.0254 17.6152C25.7324 17.8431 25.4232 18.071 25.0977 18.2988C24.8047 18.4941 24.5117 18.7057 24.2188 18.9336C23.9583 19.1615 23.7467 19.4382 23.584 19.7637C23.4538 19.7637 23.3398 19.7799 23.2422 19.8125C23.1445 19.8125 23.0306 19.8288 22.9004 19.8613C22.7702 20.1217 22.5749 20.3333 22.3145 20.4961C22.0866 20.6589 21.9238 20.8704 21.8262 21.1309C22.4121 22.4004 23.1771 23.3607 24.1211 24.0117C25.0651 24.6628 26.123 25.1348 27.2949 25.4277C28.4668 25.7207 29.7363 25.8835 31.1035 25.916C32.4707 25.9486 33.8867 25.9648 35.3516 25.9648C35.5143 25.9323 35.5794 25.8509 35.5469 25.7207C35.5469 25.5579 35.6445 25.4928 35.8398 25.5254C36.3281 25.6882 36.735 25.8835 37.0605 26.1113C37.3861 26.3392 37.6953 26.5833 37.9883 26.8438C38.2812 27.1042 38.5579 27.3809 38.8184 27.6738C39.1113 27.9342 39.4368 28.2109 39.7949 28.5039C39.7298 30.0339 39.2741 31.2871 38.4277 32.2637C37.6139 33.2077 36.5234 33.9727 35.1562 34.5586C33.2682 34.6237 31.6243 34.5749 30.2246 34.4121C28.8249 34.2493 27.4414 33.8913 26.0742 33.3379C25.9766 33.3053 25.8789 33.2077 25.7812 33.0449C25.7161 32.8822 25.651 32.7682 25.5859 32.7031C25.3255 32.5404 25.0326 32.4753 24.707 32.5078C24.3815 32.5404 24.1048 32.5078 23.877 32.4102C23.584 32.2799 23.0957 31.987 22.4121 31.5312C21.7611 31.0755 21.1589 30.6523 20.6055 30.2617C19.9219 29.7083 19.2546 29.1712 18.6035 28.6504C17.985 28.097 17.4316 27.4948 16.9434 26.8438C16.8457 26.681 16.6992 26.5996 16.5039 26.5996C16.3411 26.5996 16.1784 26.5508 16.0156 26.4531C14.8763 27.1693 13.916 28.0645 13.1348 29.1387C12.3861 30.1803 11.6536 31.2546 10.9375 32.3613C10.2214 33.4355 9.45638 34.4609 8.64258 35.4375C7.86133 36.3815 6.86849 37.1139 5.66406 37.6348C5.30599 37.6348 4.99674 37.5697 4.73633 37.4395C4.47591 37.3418 4.23177 37.1953 4.00391 37C3.77604 36.8372 3.54818 36.6745 3.32031 36.5117C3.09245 36.349 2.83203 36.235 2.53906 36.1699C2.53906 35.7142 2.44141 35.291 2.24609 34.9004C2.08333 34.4772 1.9043 34.1029 1.70898 33.7773C1.54622 33.4193 1.41602 33.0775 1.31836 32.752C1.25326 32.4264 1.35091 32.1009 1.61133 31.7754C1.25326 31.4824 0.911458 31.2383 0.585938 31.043C0.813802 30.8151 0.911458 30.6035 0.878906 30.4082C0.878906 30.2129 0.830078 30.0176 0.732422 29.8223C0.634766 29.627 0.553385 29.4316 0.488281 29.2363C0.455729 29.0085 0.520833 28.7643 0.683594 28.5039C0.813802 28.4714 0.86263 28.4062 0.830078 28.3086C0.830078 28.2109 0.878906 28.1296 0.976562 28.0645ZM71.5332 33.582C72.2819 33.6471 72.819 33.7611 73.1445 33.9238C73.5026 34.0866 73.7467 34.2982 73.877 34.5586C74.0072 34.7865 74.056 35.0469 74.0234 35.3398C73.9909 35.6328 73.9746 35.9258 73.9746 36.2188C73.1283 36.5768 72.054 36.8535 70.752 37.0488C69.4824 37.2441 68.0827 37.3906 66.5527 37.4883C65.0228 37.5859 63.4277 37.6348 61.7676 37.6348C60.1074 37.6673 58.4961 37.6836 56.9336 37.6836C55.3711 37.6836 53.9225 37.6836 52.5879 37.6836C51.2533 37.6836 50.1465 37.6999 49.2676 37.7324C46.5658 37.8952 44.4661 38.0579 42.9688 38.2207C41.4714 38.3835 40.446 38.5462 39.8926 38.709C38.916 38.6764 38.151 38.5625 37.5977 38.3672C37.0117 38.1719 36.5397 37.9277 36.1816 37.6348C35.8236 37.3418 35.5143 37.0163 35.2539 36.6582C34.9935 36.2676 34.6842 35.877 34.3262 35.4863C34.5215 35.2259 34.5703 34.8516 34.4727 34.3633C34.3424 33.875 34.0332 33.5169 33.5449 33.2891C33.9355 33.224 34.2285 33.0286 34.4238 32.7031C34.6191 32.3776 34.6354 32.1335 34.4727 31.9707C35.2865 31.8405 36.1654 31.7591 37.1094 31.7266C38.0208 31.694 38.9323 31.6777 39.8438 31.6777C40.7552 31.6452 41.6178 31.5964 42.4316 31.5312C43.2454 31.4336 43.9616 31.2871 44.5801 31.0918C47.0866 31.0918 49.707 31.0918 52.4414 31.0918C55.1758 31.0592 57.7311 31.0104 60.1074 30.9453C60.9538 31.1081 61.9466 31.2057 63.0859 31.2383C64.2578 31.2708 65.3971 31.3522 66.5039 31.4824C67.6432 31.5801 68.6686 31.7754 69.5801 32.0684C70.5241 32.3613 71.1751 32.8659 71.5332 33.582ZM90.5801 37.0977C90.0592 37.1302 89.4082 37.1139 88.627 37.0488C87.8783 36.9837 87.1784 37.0977 86.5273 37.3906C84.8021 37.3255 83.0443 37.1139 81.2539 36.7559C79.4635 36.3978 77.8197 35.9583 76.3223 35.4375C75.9967 35.0794 75.6712 34.7539 75.3457 34.4609C75.0202 34.1354 74.5807 33.9076 74.0273 33.7773C73.2461 33.1589 72.6113 32.4102 72.123 31.5312C71.6348 30.6198 71.2441 29.6595 70.9512 28.6504C70.6582 27.6413 70.4629 26.6159 70.3652 25.5742C70.2676 24.5 70.235 23.4746 70.2676 22.498C70.7559 21.0332 71.4395 19.7799 72.3184 18.7383C73.2298 17.6641 74.1576 16.6061 75.1016 15.5645C75.5247 15.3691 75.834 15.1738 76.0293 14.9785C76.2572 14.7507 76.485 14.5553 76.7129 14.3926C76.9733 14.1973 77.2174 14.0182 77.4453 13.8555C77.7057 13.6602 77.9336 13.4323 78.1289 13.1719C78.8125 13.0091 79.3984 12.7812 79.8867 12.4883C80.4076 12.1628 80.9121 11.8372 81.4004 11.5117C81.8887 11.1536 82.3932 10.8281 82.9141 10.5352C83.4349 10.2422 84.0371 10.0143 84.7207 9.85156C84.9811 9.55859 85.2904 9.33073 85.6484 9.16797C86.0065 8.97266 86.3646 8.79362 86.7227 8.63086C87.1133 8.43555 87.4714 8.24023 87.7969 8.04492C88.1549 7.84961 88.4316 7.58919 88.627 7.26367C88.7897 7.52409 89.0176 7.62174 89.3105 7.55664C89.6035 7.45898 89.8802 7.36133 90.1406 7.26367C90.3034 7.23112 90.4336 7.26367 90.5312 7.36133C90.6615 7.45898 90.7754 7.55664 90.873 7.6543C90.9707 7.75195 91.0521 7.81706 91.1172 7.84961C91.2148 7.84961 91.2962 7.76823 91.3613 7.60547C91.5241 7.60547 91.5729 7.68685 91.5078 7.84961C91.4427 8.01237 91.3939 8.1263 91.3613 8.19141C91.6217 8.15885 91.8333 8.22396 91.9961 8.38672C92.1914 8.51693 92.4844 8.59831 92.875 8.63086C93.0052 8.79362 93.0378 8.92383 92.9727 9.02148C92.9076 9.08659 92.875 9.2168 92.875 9.41211C93.8516 9.70508 94.4701 10.1771 94.7305 10.8281C94.9909 11.4466 95.0072 12.0977 94.7793 12.7812C94.5514 13.4648 94.1445 14.0996 93.5586 14.6855C92.9727 15.2715 92.3379 15.6621 91.6543 15.8574C90.0918 16.2806 88.6107 16.7526 87.2109 17.2734C85.8438 17.7617 84.7207 18.4941 83.8418 19.4707C83.0605 19.6986 82.3607 20.0078 81.7422 20.3984C81.1562 20.7565 80.5866 21.1797 80.0332 21.668C79.5124 22.1237 79.0078 22.612 78.5195 23.1328C78.0638 23.6211 77.5755 24.1094 77.0547 24.5977C77.0872 25.0534 77.0059 25.4115 76.8105 25.6719C76.6478 25.8997 76.485 26.1439 76.3223 26.4043C76.3874 26.8926 76.5013 27.332 76.6641 27.7227C76.8268 28.0807 77.0059 28.4388 77.2012 28.7969C79.3496 29.4479 81.6283 29.8548 84.0371 30.0176C86.4785 30.1803 88.9199 30.278 91.3613 30.3105C91.5892 30.6361 91.8496 30.9453 92.1426 31.2383C92.4681 31.4987 92.7611 31.7917 93.0215 32.1172C93.2819 32.4102 93.4935 32.752 93.6562 33.1426C93.819 33.5007 93.8516 33.9564 93.7539 34.5098C93.2982 34.998 92.7936 35.4538 92.2402 35.877C91.6868 36.2676 91.1335 36.6745 90.5801 37.0977ZM116.951 32.2637C117.016 33.11 116.919 33.8099 116.658 34.3633C116.398 34.9167 116.04 35.3887 115.584 35.7793C115.128 36.1699 114.607 36.4792 114.021 36.707C113.436 36.9349 112.866 37.1465 112.312 37.3418C112.052 37.179 111.792 37.0163 111.531 36.8535C111.303 36.6582 111.027 36.5117 110.701 36.4141C110.278 35.6328 109.871 34.9492 109.48 34.3633C109.09 33.7448 108.911 33.0449 108.943 32.2637C108.943 32.2311 108.96 32.0521 108.992 31.7266C109.057 31.401 109.122 31.043 109.188 30.6523C109.285 30.2617 109.35 29.9036 109.383 29.5781C109.448 29.2201 109.48 29.0247 109.48 28.9922C108.732 29.0573 107.951 29.2201 107.137 29.4805C106.323 29.7409 105.525 30.0501 104.744 30.4082C103.995 30.7663 103.279 31.1243 102.596 31.4824C101.945 31.8405 101.408 32.1497 100.984 32.4102C100.984 32.5078 100.919 32.752 100.789 33.1426C100.659 33.5007 100.496 33.8913 100.301 34.3145C100.105 34.7051 99.8939 35.0632 99.666 35.3887C99.4382 35.7142 99.2103 35.877 98.9824 35.877C99.015 35.9746 99.0638 36.0723 99.1289 36.1699C99.194 36.2676 99.194 36.3978 99.1289 36.5605C98.6732 36.6908 98.2663 36.8535 97.9082 37.0488C97.5501 37.2767 97.1758 37.4557 96.7852 37.5859C96.3945 37.7487 95.9714 37.8301 95.5156 37.8301C95.0599 37.8301 94.5228 37.6673 93.9043 37.3418C93.9043 37.1465 93.8229 36.9837 93.6602 36.8535C93.4974 36.6908 93.3184 36.5605 93.123 36.4629C92.9603 36.3327 92.8138 36.235 92.6836 36.1699C92.5534 36.0723 92.4883 35.9909 92.4883 35.9258C92.3255 35.9583 92.2604 35.8444 92.293 35.584C92.3255 35.3236 92.4557 35.2585 92.6836 35.3887C92.3255 34.9329 92.0977 34.5423 92 34.2168C91.9349 33.8587 91.7559 33.4193 91.4629 32.8984C91.528 32.8333 91.5931 32.7194 91.6582 32.5566C91.6908 32.3939 91.7233 32.2474 91.7559 32.1172C91.7884 31.987 91.8372 31.8893 91.9023 31.8242C91.9674 31.7591 92.0488 31.7754 92.1465 31.873C92.0814 31.5801 92.0814 31.3359 92.1465 31.1406C92.2116 30.9453 92.2767 30.7663 92.3418 30.6035C92.4069 30.4408 92.4557 30.278 92.4883 30.1152C92.5208 29.9525 92.472 29.7734 92.3418 29.5781C92.8626 28.862 93.2044 28.097 93.3672 27.2832C93.5299 26.4368 93.6276 25.6719 93.6602 24.9883C93.888 24.7604 94.0833 24.4349 94.2461 24.0117C94.4414 23.5885 94.5879 23.1654 94.6855 22.7422C94.7832 22.2865 94.8158 21.8633 94.7832 21.4727C94.7832 21.0495 94.7344 20.7077 94.6367 20.4473C94.6693 20.2845 94.8483 20.2357 95.1738 20.3008C95.3691 19.2266 95.4993 18.0221 95.5645 16.6875C95.6621 15.3203 95.8086 14.0345 96.0039 12.8301C96.1992 11.5931 96.5247 10.5189 96.9805 9.60742C97.4362 8.66341 98.1686 8.04492 99.1777 7.75195C99.373 8.43555 99.6172 9.03776 99.9102 9.55859C100.236 10.0794 100.577 10.584 100.936 11.0723C101.326 11.528 101.701 12 102.059 12.4883C102.449 12.9766 102.807 13.5299 103.133 14.1484C103.1 14.7669 103.035 15.4831 102.938 16.2969C102.84 17.1107 102.71 17.9408 102.547 18.7871C102.417 19.6335 102.27 20.4473 102.107 21.2285C101.977 22.0098 101.847 22.6771 101.717 23.2305C101.749 23.3932 101.831 23.4909 101.961 23.5234C102.124 23.556 102.156 23.7025 102.059 23.9629C102.84 23.7676 103.654 23.5885 104.5 23.4258C105.346 23.263 106.193 23.084 107.039 22.8887C107.885 22.6934 108.699 22.4818 109.48 22.2539C110.294 21.9935 111.043 21.6842 111.727 21.3262C111.889 20.0566 112.101 18.7871 112.361 17.5176C112.622 16.248 112.654 14.946 112.459 13.6113C112.622 13.4811 112.752 13.3184 112.85 13.123C112.947 12.9277 113.11 12.7975 113.338 12.7324C113.175 12.1139 113.11 11.4629 113.143 10.7793C113.175 10.0957 113.289 9.44466 113.484 8.82617C113.712 8.20768 114.021 7.68685 114.412 7.26367C114.835 6.80794 115.34 6.51497 115.926 6.38477C116.284 6.9056 116.593 7.47526 116.854 8.09375C117.114 8.67969 117.374 9.2819 117.635 9.90039C117.928 10.4863 118.221 11.056 118.514 11.6094C118.839 12.1302 119.246 12.5859 119.734 12.9766C119.832 13.9206 119.897 14.8971 119.93 15.9062C119.995 16.9154 120.044 17.9408 120.076 18.9824C119.816 20.2194 119.523 21.4238 119.197 22.5957C118.904 23.735 118.693 24.9557 118.562 26.2578C118.335 26.5182 118.156 26.8112 118.025 27.1367C117.895 27.4622 117.765 27.804 117.635 28.1621C117.505 28.4876 117.358 28.8132 117.195 29.1387C117.033 29.4316 116.837 29.6921 116.609 29.9199C116.74 30.3105 116.756 30.6849 116.658 31.043C116.593 31.3685 116.691 31.7754 116.951 32.2637ZM127.404 33.582C127.567 34.5586 127.502 35.3236 127.209 35.877C126.949 36.4303 126.558 36.8372 126.037 37.0977C125.549 37.3906 124.979 37.5534 124.328 37.5859C123.677 37.6185 123.059 37.5859 122.473 37.4883C122.147 37.0326 121.854 36.4629 121.594 35.7793C121.333 35.0957 121.089 34.3958 120.861 33.6797C120.633 32.931 120.422 32.1986 120.227 31.4824C120.064 30.7663 119.917 30.1315 119.787 29.5781C119.95 29.1875 120.048 28.748 120.08 28.2598C120.145 27.7389 120.178 27.2181 120.178 26.6973C120.21 26.1764 120.227 25.6556 120.227 25.1348C120.259 24.5814 120.308 24.0605 120.373 23.5723C120.601 22.2051 120.926 20.903 121.35 19.666C121.805 18.429 122.163 17.1432 122.424 15.8086C122.489 15.5156 122.456 15.2389 122.326 14.9785C122.229 14.7181 122.212 14.474 122.277 14.2461C122.31 14.1159 122.408 14.0345 122.57 14.002C122.733 13.9368 122.831 13.8229 122.863 13.6602C122.961 13.3021 122.977 13.0091 122.912 12.7812C122.88 12.5534 122.945 12.2767 123.107 11.9512C123.27 11.6908 123.465 11.3164 123.693 10.8281C123.954 10.3073 124.051 9.77018 123.986 9.2168C124.279 9.02148 124.556 8.79362 124.816 8.5332C125.077 8.27279 125.337 8.04492 125.598 7.84961C125.891 7.62174 126.2 7.42643 126.525 7.26367C126.883 7.10091 127.307 7.01953 127.795 7.01953C128.055 7.34505 128.218 7.70312 128.283 8.09375C128.381 8.48438 128.462 8.875 128.527 9.26562C128.625 9.65625 128.755 10.0306 128.918 10.3887C129.081 10.7142 129.357 10.9746 129.748 11.1699C129.748 11.4303 129.748 11.7559 129.748 12.1465C129.748 12.5371 129.764 12.9277 129.797 13.3184C129.829 13.6764 129.895 14.0182 129.992 14.3438C130.122 14.6367 130.318 14.832 130.578 14.9297C129.992 16.4922 129.439 18.0384 128.918 19.5684C128.43 21.0983 128.023 22.6445 127.697 24.207C127.372 25.737 127.16 27.2832 127.062 28.8457C126.997 30.4082 127.111 31.987 127.404 33.582ZM145.328 28.4062C145.296 28.862 145.182 29.3014 144.986 29.7246C144.824 30.1152 144.612 30.5059 144.352 30.8965C144.091 31.2546 143.798 31.6126 143.473 31.9707C143.18 32.2962 142.887 32.5892 142.594 32.8496C142.691 33.2728 142.691 33.5983 142.594 33.8262C142.529 34.0215 142.512 34.3307 142.545 34.7539C142.057 36.056 141.308 36.9186 140.299 37.3418C139.322 37.7975 138.395 37.7161 137.516 37.0977C137.158 36.8372 136.848 36.5117 136.588 36.1211C136.36 35.6979 136.035 35.4375 135.611 35.3398C135.709 34.7865 135.66 34.2331 135.465 33.6797C135.27 33.1263 135.058 32.8333 134.83 32.8008C134.732 32.1172 134.586 31.3848 134.391 30.6035C134.195 29.8223 134.016 29.041 133.854 28.2598C133.691 27.446 133.544 26.6647 133.414 25.916C133.316 25.1348 133.284 24.4186 133.316 23.7676C133.349 23.4421 133.284 23.1491 133.121 22.8887C132.991 22.6283 132.893 22.319 132.828 21.9609C132.698 21.2122 132.649 20.431 132.682 19.6172C132.747 18.7708 132.779 17.9733 132.779 17.2246C132.779 16.5085 132.73 15.7435 132.633 14.9297C132.568 14.0833 132.503 13.2858 132.438 12.5371C132.372 11.7559 132.34 11.056 132.34 10.4375C132.34 9.78646 132.421 9.2819 132.584 8.92383C132.779 8.5332 133.04 8.22396 133.365 7.99609C133.723 7.73568 134.049 7.45898 134.342 7.16602C135.058 7.23112 135.628 7.52409 136.051 8.04492C136.474 8.56576 136.637 9.05404 136.539 9.50977C137.223 9.93294 137.76 10.4863 138.15 11.1699C138.574 11.821 138.899 12.5697 139.127 13.416C139.387 14.2298 139.566 15.1087 139.664 16.0527C139.762 16.9642 139.843 17.8757 139.908 18.7871C139.973 19.666 140.038 20.5124 140.104 21.3262C140.169 22.14 140.299 22.8398 140.494 23.4258C141.699 21.7005 142.708 20.1706 143.521 18.8359C144.335 17.4688 145.165 16.1667 146.012 14.9297C146.858 13.6927 147.802 12.4395 148.844 11.1699C149.885 9.90039 151.236 8.4681 152.896 6.87305C153.222 6.9056 153.482 6.9707 153.678 7.06836C153.906 7.16602 154.101 7.2474 154.264 7.3125C154.426 7.3776 154.622 7.44271 154.85 7.50781C155.077 7.54036 155.387 7.52409 155.777 7.45898C155.908 7.78451 156.005 8.02865 156.07 8.19141C156.135 8.32161 156.184 8.4681 156.217 8.63086C156.282 8.76107 156.347 8.9401 156.412 9.16797C156.51 9.39583 156.656 9.72135 156.852 10.1445C156.949 10.2422 156.982 10.3724 156.949 10.5352C156.917 10.6979 156.884 10.8607 156.852 11.0234C156.852 11.1536 156.852 11.2513 156.852 11.3164C156.852 11.3815 156.933 11.3815 157.096 11.3164C156.998 11.7721 156.819 12.1953 156.559 12.5859C156.331 12.944 156.233 13.3835 156.266 13.9043C155.517 14.8809 154.687 15.89 153.775 16.9316C152.896 17.9733 152.001 19.0475 151.09 20.1543C150.211 21.2611 149.365 22.4329 148.551 23.6699C147.737 24.8743 147.037 26.1439 146.451 27.4785C146.288 27.4785 146.158 27.5273 146.061 27.625C145.995 27.7227 145.93 27.8366 145.865 27.9668C145.8 28.0645 145.719 28.1621 145.621 28.2598C145.556 28.3574 145.458 28.4062 145.328 28.4062ZM176.582 9.50977C176.615 9.73763 176.615 9.91667 176.582 10.0469C176.582 10.1445 176.566 10.2422 176.533 10.3398C176.533 10.4375 176.533 10.5514 176.533 10.6816C176.533 10.7793 176.566 10.9421 176.631 11.1699C175.947 12.2767 175.15 13.0417 174.238 13.4648C173.359 13.8555 172.399 14.1484 171.357 14.3438C170.316 14.5065 169.242 14.6855 168.135 14.8809C167.061 15.0762 165.986 15.4993 164.912 16.1504C164.489 15.9876 164.098 15.9876 163.74 16.1504C163.415 16.3132 162.926 16.362 162.275 16.2969C162.08 16.4922 161.836 16.6387 161.543 16.7363C161.25 16.8014 160.957 16.8828 160.664 16.9805C160.794 17.2734 160.843 17.5827 160.811 17.9082C160.811 18.2012 160.859 18.4453 160.957 18.6406C162.096 18.7383 163.35 18.722 164.717 18.5918C166.117 18.4616 167.484 18.3802 168.818 18.3477C168.851 18.5104 168.835 18.6243 168.77 18.6895C168.704 18.722 168.688 18.8034 168.721 18.9336C168.949 19.0964 169.176 19.3079 169.404 19.5684C169.632 19.7962 169.86 20.0241 170.088 20.252C170.316 20.4798 170.544 20.6751 170.771 20.8379C171.032 20.9681 171.325 21.0169 171.65 20.9844C171.781 21.2448 171.862 21.5378 171.895 21.8633C171.96 22.1562 171.927 22.4655 171.797 22.791C171.276 23.1491 170.755 23.5234 170.234 23.9141C169.714 24.2721 169.16 24.5977 168.574 24.8906C168.021 25.1836 167.419 25.4277 166.768 25.623C166.149 25.7858 165.449 25.8509 164.668 25.8184C164.505 25.8184 164.375 25.8184 164.277 25.8184C164.212 25.8184 164.115 25.7695 163.984 25.6719C163.724 25.8346 163.35 25.8835 162.861 25.8184C162.406 25.7533 162.048 25.8021 161.787 25.9648C161.429 25.8021 160.99 25.737 160.469 25.7695C159.98 25.7695 159.541 25.7044 159.15 25.5742C158.63 26.2578 158.158 26.9902 157.734 27.7715C157.311 28.5527 156.937 29.3828 156.611 30.2617C157.718 30.4245 158.63 30.4896 159.346 30.457C160.094 30.4245 160.794 30.3757 161.445 30.3105C162.096 30.2129 162.764 30.1315 163.447 30.0664C164.131 29.9688 164.993 29.9362 166.035 29.9688C166.686 29.6107 167.451 29.3828 168.33 29.2852C169.242 29.1549 170.072 28.9596 170.82 28.6992C171.081 28.7969 171.309 28.9759 171.504 29.2363C171.699 29.4642 171.878 29.6921 172.041 29.9199C172.236 30.1152 172.432 30.2943 172.627 30.457C172.822 30.6198 173.066 30.6849 173.359 30.6523C173.49 30.7826 173.571 30.9453 173.604 31.1406C173.669 31.3034 173.717 31.4661 173.75 31.6289C173.783 31.7917 173.831 31.9382 173.896 32.0684C173.994 32.166 174.141 32.1986 174.336 32.166C173.848 33.2402 173.278 34.0703 172.627 34.6562C172.008 35.2096 171.292 35.6328 170.479 35.9258C169.665 36.2188 168.753 36.4466 167.744 36.6094C166.768 36.7721 165.677 36.9674 164.473 37.1953C164.18 37.2604 163.936 37.2441 163.74 37.1465C163.545 37.0814 163.317 37.0488 163.057 37.0488C162.308 37.2116 161.413 37.3581 160.371 37.4883C159.329 37.6185 158.271 37.6673 157.197 37.6348C156.123 37.6022 155.098 37.4557 154.121 37.1953C153.145 36.9674 152.347 36.5443 151.729 35.9258C151.468 35.6979 151.289 35.4375 151.191 35.1445C151.126 34.819 150.915 34.5749 150.557 34.4121C150.524 33.9889 150.459 33.5169 150.361 32.9961C150.264 32.4753 150.166 31.9382 150.068 31.3848C149.971 30.7988 149.889 30.2292 149.824 29.6758C149.792 29.1224 149.824 28.6178 149.922 28.1621C150.02 27.6738 150.215 27.2344 150.508 26.8438C150.833 26.4531 150.947 26.0299 150.85 25.5742C151.012 25.5417 151.11 25.4603 151.143 25.3301C151.175 25.1673 151.305 25.1022 151.533 25.1348C151.729 24.5488 151.94 23.9954 152.168 23.4746C152.396 22.9538 152.624 22.4492 152.852 21.9609C153.112 21.4727 153.356 20.9844 153.584 20.4961C153.844 19.9753 154.089 19.4056 154.316 18.7871C153.861 18.3639 153.519 17.9082 153.291 17.4199C153.096 16.8991 152.949 16.3945 152.852 15.9062C152.754 15.3854 152.673 14.8646 152.607 14.3438C152.542 13.7904 152.428 13.237 152.266 12.6836C152.591 12.1953 152.982 11.8047 153.438 11.5117C153.926 11.1862 154.447 10.9258 155 10.7305C155.553 10.5352 156.156 10.3724 156.807 10.2422C157.458 10.112 158.141 9.96549 158.857 9.80273C160.16 9.37956 161.315 9.05404 162.324 8.82617C163.366 8.59831 164.375 8.41927 165.352 8.28906C166.361 8.1263 167.402 7.97982 168.477 7.84961C169.551 7.7194 170.771 7.52409 172.139 7.26367C172.432 7.55664 172.708 7.70312 172.969 7.70312C173.099 7.41016 173.245 7.32878 173.408 7.45898C173.604 7.55664 173.685 7.45898 173.652 7.16602C173.978 7.7194 174.385 8.19141 174.873 8.58203C175.394 8.9401 175.964 9.24935 176.582 9.50977Z" fill="black"/>
</svg>
